<?xml version="1.0" standalone="no"?><svg xmlns="http://www.w3.org/2000/svg" viewBox="0 0 1440 320"><path fill="#ffffff" fill-opacity="1" d="M0,64L21.8,74.7C43.6,85,87,107,131,138.7C174.5,171,218,213,262,208C305.5,203,349,149,393,154.7C436.4,160,480,224,524,234.7C567.3,245,611,203,655,165.3C698.2,128,742,96,785,112C829.1,128,873,192,916,202.7C960,213,1004,171,1047,144C1090.9,117,1135,107,1178,90.7C1221.8,75,1265,53,1309,64C1352.7,75,1396,117,1418,138.7L1440,160L1440,320L1418.2,320C1396.4,320,1353,320,1309,320C1265.5,320,1222,320,1178,320C1134.5,320,1091,320,1047,320C1003.6,320,960,320,916,320C872.7,320,829,320,785,320C741.8,320,698,320,655,320C610.9,320,567,320,524,320C480,320,436,320,393,320C349.1,320,305,320,262,320C218.2,320,175,320,131,320C87.3,320,44,320,22,320L0,320Z"></path></svg>